<svg width="51" height="51" viewBox="0 0 51 51" fill="none" xmlns="http://www.w3.org/2000/svg">
<path d="M43.9161 22.1468C44.5158 22.477 45.0159 22.962 45.3642 23.5514C45.7125 24.1408 45.8963 24.8129 45.8963 25.4975C45.8963 26.1821 45.7125 26.8541 45.3642 27.4435C45.0159 28.0329 44.5158 28.518 43.9161 28.8482L18.4161 42.8681C17.8336 43.1879 17.1779 43.3505 16.5134 43.3398C15.849 43.3291 15.1988 43.1455 14.6269 42.8071C14.055 42.4686 13.5812 41.987 13.2521 41.4097C12.923 40.8324 12.7499 40.1793 12.75 39.5148V11.4801C12.7501 10.8154 12.9234 10.1623 13.2529 9.58497C13.5823 9.00768 14.0565 8.5262 14.6287 8.18798C15.2009 7.84977 15.8513 7.66649 16.5159 7.65622C17.1805 7.64595 17.8363 7.80903 18.4187 8.12941L43.9186 22.1468H43.9161Z" fill="#3D345F"/>
</svg>
